<svg width="181" height="251" viewBox="0 0 181 251" fill="none" xmlns="http://www.w3.org/2000/svg">
<mask id="path-1-outside-1_85_55" maskUnits="userSpaceOnUse" x="-0.616028" y="-0.35199" width="182" height="252" fill="black">
<rect fill="white" x="-0.616028" y="-0.35199" width="182" height="252"/>
<path d="M56.368 44.128C56.368 38.144 55.824 33.8827 54.736 31.344C68.88 26.448 82.208 24 94.72 24C96.352 25.632 97.168 29.8027 97.168 36.512C97.168 48.48 92.0906 76.0427 81.936 119.2C96.624 108.501 109.499 103.152 120.56 103.152C127.451 103.152 132.619 105.328 136.064 109.68C139.691 114.032 141.504 119.835 141.504 127.088C141.504 134.16 139.419 145.856 135.248 162.176C131.077 178.315 128.992 189.376 128.992 195.36C128.992 201.344 129.717 204.336 131.168 204.336C132.619 204.336 136.427 202.704 142.592 199.44L145.856 197.808L150.752 207.328C149.12 208.779 146.944 210.592 144.224 212.768C141.504 214.944 136.517 217.845 129.264 221.472C122.011 225.099 115.301 226.912 109.136 226.912C103.152 226.912 98.3466 225.008 94.72 221.2C91.0933 217.211 89.28 211.952 89.28 205.424C89.28 198.715 91.2746 186.656 95.264 169.248C99.4346 151.659 101.52 140.597 101.52 136.064C101.52 131.349 99.616 128.992 95.808 128.992C91.0933 128.992 85.2 130.987 78.128 134.976C68.1546 178.859 63.168 207.328 63.168 220.384C55.552 223.285 42.5866 224.736 24.272 224.736C24.0906 221.653 24 218.933 24 216.576C24 208.779 29.3493 182.123 40.048 136.608C50.928 91.0933 56.368 60.2667 56.368 44.128Z"/>
</mask>
<path d="M56.368 44.128C56.368 38.144 55.824 33.8827 54.736 31.344C68.88 26.448 82.208 24 94.72 24C96.352 25.632 97.168 29.8027 97.168 36.512C97.168 48.48 92.0906 76.0427 81.936 119.2C96.624 108.501 109.499 103.152 120.56 103.152C127.451 103.152 132.619 105.328 136.064 109.68C139.691 114.032 141.504 119.835 141.504 127.088C141.504 134.16 139.419 145.856 135.248 162.176C131.077 178.315 128.992 189.376 128.992 195.36C128.992 201.344 129.717 204.336 131.168 204.336C132.619 204.336 136.427 202.704 142.592 199.44L145.856 197.808L150.752 207.328C149.12 208.779 146.944 210.592 144.224 212.768C141.504 214.944 136.517 217.845 129.264 221.472C122.011 225.099 115.301 226.912 109.136 226.912C103.152 226.912 98.3466 225.008 94.72 221.2C91.0933 217.211 89.28 211.952 89.28 205.424C89.28 198.715 91.2746 186.656 95.264 169.248C99.4346 151.659 101.52 140.597 101.52 136.064C101.52 131.349 99.616 128.992 95.808 128.992C91.0933 128.992 85.2 130.987 78.128 134.976C68.1546 178.859 63.168 207.328 63.168 220.384C55.552 223.285 42.5866 224.736 24.272 224.736C24.0906 221.653 24 218.933 24 216.576C24 208.779 29.3493 182.123 40.048 136.608C50.928 91.0933 56.368 60.2667 56.368 44.128Z" fill="black"/>
<path d="M54.736 31.344L46.8853 8.66434L22.5196 17.0986L32.6765 40.7981L54.736 31.344ZM94.72 24L111.691 7.02944L104.661 2.86102e-06H94.72V24ZM81.936 119.2L58.574 113.703L43.7496 176.707L96.0663 138.599L81.936 119.2ZM136.064 109.68L117.247 124.577L117.434 124.813L117.627 125.044L136.064 109.68ZM135.248 162.176L158.485 168.181L158.493 168.15L158.501 168.118L135.248 162.176ZM142.592 199.44L131.859 177.974L131.609 178.099L131.363 178.229L142.592 199.44ZM145.856 197.808L167.199 186.832L156.347 165.73L135.123 176.342L145.856 197.808ZM150.752 207.328L166.697 225.266L180.606 212.902L172.095 196.352L150.752 207.328ZM144.224 212.768L159.217 231.509L159.217 231.509L144.224 212.768ZM94.72 221.2L76.9614 237.344L77.1487 237.55L77.3407 237.752L94.72 221.2ZM95.264 169.248L71.9115 163.711L71.8906 163.799L71.8704 163.887L95.264 169.248ZM78.128 134.976L66.3363 114.073L57.08 119.294L54.7248 129.657L78.128 134.976ZM63.168 220.384L71.7119 242.812L87.168 236.924V220.384H63.168ZM24.272 224.736L0.313388 226.145L1.64225 248.736H24.272V224.736ZM40.048 136.608L16.7056 131.028L16.6951 131.072L16.6847 131.116L40.048 136.608ZM56.368 44.128H80.368C80.368 37.81 79.9556 29.2636 76.7955 21.8899L54.736 31.344L32.6765 40.7981C32.2959 39.91 32.146 39.3108 32.1127 39.172C32.0744 39.0124 32.1034 39.0933 32.1532 39.4832C32.2576 40.3011 32.368 41.7899 32.368 44.128H56.368ZM54.736 31.344L62.5866 54.0237C74.6868 49.8351 85.3459 48 94.72 48V24V2.86102e-06C79.07 2.86102e-06 63.0731 3.06087 46.8853 8.66434L54.736 31.344ZM94.72 24L77.7494 40.9706C75.3251 38.5463 74.1657 36.1843 73.6782 35.0288C73.1651 33.8124 73.0132 33.0148 73.0026 32.9603C72.9944 32.9184 73.168 33.9267 73.168 36.512H97.168H121.168C121.168 32.388 120.934 27.9563 120.109 23.7437C119.448 20.365 117.695 13.0338 111.691 7.02944L94.72 24ZM97.168 36.512H73.168C73.168 40.0964 72.2877 48.0744 69.7571 61.8121C67.3177 75.0545 63.6066 92.3142 58.574 113.703L81.936 119.2L105.298 124.697C110.42 102.928 114.325 84.8282 116.963 70.5079C119.51 56.6829 121.168 44.8957 121.168 36.512H97.168ZM81.936 119.2L96.0663 138.599C109.058 129.136 116.911 127.152 120.56 127.152V103.152V79.152C102.086 79.152 84.1902 87.8663 67.8056 99.8007L81.936 119.2ZM120.56 103.152V127.152C121.518 127.152 121.246 127.306 120.291 126.903C119.807 126.699 119.239 126.39 118.661 125.951C118.081 125.512 117.607 125.032 117.247 124.577L136.064 109.68L154.881 94.7831C145.797 83.309 132.835 79.152 120.56 79.152V103.152ZM136.064 109.68L117.627 125.044C117.283 124.632 117.198 124.333 117.236 124.455C117.295 124.642 117.504 125.435 117.504 127.088H141.504H165.504C165.504 115.827 162.632 104.072 154.501 94.3156L136.064 109.68ZM141.504 127.088H117.504C117.504 130.839 116.163 139.924 111.995 156.234L135.248 162.176L158.501 168.118C162.674 151.788 165.504 137.481 165.504 127.088H141.504ZM135.248 162.176L112.011 156.171C107.931 171.961 104.992 185.874 104.992 195.36H128.992H152.992C152.992 192.878 154.224 184.668 158.485 168.181L135.248 162.176ZM128.992 195.36H104.992C104.992 198.826 105.156 203.392 106.212 207.746C106.706 209.786 107.861 213.841 110.806 217.891C114.218 222.582 121.053 228.336 131.168 228.336V204.336V180.336C140.558 180.336 146.758 185.716 149.626 189.659C152.027 192.961 152.729 195.894 152.86 196.438C153.191 197.8 152.992 197.878 152.992 195.36H128.992ZM131.168 204.336V228.336C135.226 228.336 138.526 227.351 139.812 226.952C141.552 226.411 143.189 225.762 144.566 225.171C147.342 223.982 150.492 222.413 153.821 220.651L142.592 199.44L131.363 178.229C129.986 178.958 128.814 179.557 127.834 180.038C126.841 180.525 126.129 180.851 125.658 181.053C125.428 181.151 125.301 181.201 125.264 181.215C125.219 181.232 125.335 181.186 125.584 181.108C125.811 181.038 126.348 180.879 127.116 180.726C127.512 180.646 128.042 180.554 128.681 180.479C129.311 180.406 130.158 180.336 131.168 180.336V204.336ZM142.592 199.44L153.325 220.906L156.589 219.274L145.856 197.808L135.123 176.342L131.859 177.974L142.592 199.44ZM145.856 197.808L124.513 208.784L129.409 218.304L150.752 207.328L172.095 196.352L167.199 186.832L145.856 197.808ZM150.752 207.328L134.807 189.39C133.612 190.453 131.793 191.978 129.231 194.027L144.224 212.768L159.217 231.509C162.095 229.206 164.628 227.104 166.697 225.266L150.752 207.328ZM144.224 212.768L129.231 194.027C129.277 193.99 129.087 194.144 128.555 194.495C128.041 194.833 127.327 195.277 126.375 195.832C124.454 196.949 121.87 198.336 118.531 200.006L129.264 221.472L139.997 242.938C147.304 239.285 154.327 235.421 159.217 231.509L144.224 212.768ZM129.264 221.472L118.531 200.006C113.601 202.471 110.591 202.912 109.136 202.912V226.912V250.912C120.012 250.912 130.421 247.727 139.997 242.938L129.264 221.472ZM109.136 226.912V202.912C108.7 202.912 109.066 202.847 109.885 203.172C110.769 203.522 111.56 204.082 112.099 204.648L94.72 221.2L77.3407 237.752C86.1394 246.99 97.577 250.912 109.136 250.912V226.912ZM94.72 221.2L112.479 205.056C112.676 205.273 112.866 205.528 113.026 205.802C113.186 206.073 113.28 206.299 113.329 206.44C113.426 206.722 113.28 206.477 113.28 205.424H89.28H65.28C65.28 216.598 68.509 228.046 76.9614 237.344L94.72 221.2ZM89.28 205.424H113.28C113.28 201.795 114.619 192.233 118.658 174.609L95.264 169.248L71.8704 163.887C67.9305 181.079 65.28 195.634 65.28 205.424H89.28ZM95.264 169.248L118.616 174.785C120.743 165.817 122.401 158.253 123.541 152.206C124.572 146.732 125.52 140.828 125.52 136.064H101.52H77.52C77.52 135.833 77.4248 137.726 76.3714 143.314C75.426 148.329 73.9556 155.09 71.9115 163.711L95.264 169.248ZM101.52 136.064H125.52C125.52 131.102 124.62 122.932 118.763 115.68C112.114 107.448 102.93 104.992 95.808 104.992V128.992V152.992C92.4941 152.992 86.1662 151.715 81.4214 145.84C77.4681 140.946 77.52 136.311 77.52 136.064H101.52ZM95.808 128.992V104.992C84.967 104.992 74.7387 109.333 66.3363 114.073L78.128 134.976L89.9197 155.879C92.5209 154.412 94.3728 153.618 95.5463 153.221C96.7592 152.811 96.7523 152.992 95.808 152.992V128.992ZM78.128 134.976L54.7248 129.657C44.9155 172.818 39.168 204.099 39.168 220.384H63.168H87.168C87.168 210.557 91.3938 184.899 101.531 140.295L78.128 134.976ZM63.168 220.384L54.6241 197.956C51.4693 199.158 42.4008 200.736 24.272 200.736V224.736V248.736C42.7724 248.736 59.6347 247.413 71.7119 242.812L63.168 220.384ZM24.272 224.736L48.2306 223.327C48.0689 220.579 48 218.345 48 216.576H24H-2.7597e-05C-2.7597e-05 219.521 0.11236 222.728 0.313388 226.145L24.272 224.736ZM24 216.576H48C48 216.625 48.0666 215.075 48.7188 210.874C49.3124 207.051 50.2412 201.944 51.5428 195.458C54.1421 182.506 58.0859 164.755 63.4112 142.1L40.048 136.608L16.6847 131.116C11.3113 153.976 7.23118 172.31 4.48112 186.014C1.93866 198.683 -2.7597e-05 209.813 -2.7597e-05 216.576H24ZM40.048 136.608L63.3903 142.188C74.1733 97.0789 80.368 63.5434 80.368 44.128H56.368H32.368C32.368 56.9899 27.6826 85.1078 16.7056 131.028L40.048 136.608Z" fill="#FF8080" mask="url(#path-1-outside-1_85_55)"/>
</svg>
