<svg width="57" height="57" viewBox="0 0 57 57" fill="none" xmlns="http://www.w3.org/2000/svg">
<path d="M25.2 45V23.92H30.8V45H25.2ZM28 21.8C26.96 21.8 26.12 21.4933 25.48 20.88C24.84 20.24 24.52 19.4267 24.52 18.44C24.52 17.4 24.8533 16.56 25.52 15.92C26.1867 15.28 27.0267 14.96 28.04 14.96C28.9733 14.96 29.7733 15.28 30.44 15.92C31.1333 16.5333 31.48 17.36 31.48 18.4C31.48 19.4133 31.1467 20.24 30.48 20.88C29.84 21.4933 29.0133 21.8 28 21.8Z" fill="black"/>
<circle cx="28.5" cy="28.5" r="26" stroke="black" stroke-width="5"/>
</svg>
